<svg width="3150" height="830" viewBox="0 0 3150 830" fill="none" xmlns="http://www.w3.org/2000/svg">
<path d="M404.134 79.8152L674.438 350.031C691.619 367.211 701.271 390.513 701.271 414.809C701.271 439.106 691.619 462.407 674.438 479.587C657.257 496.768 633.955 506.419 609.658 506.419C585.361 506.419 562.059 496.768 544.878 479.587L274.656 209.29C266.154 200.789 259.411 190.696 254.81 179.588C250.208 168.481 247.84 156.575 247.84 144.553C247.84 132.53 250.208 120.625 254.81 109.517C259.411 98.4093 266.154 88.3167 274.656 79.8152C283.158 71.3138 293.251 64.5702 304.359 59.9692C315.467 55.3683 327.372 52.9999 339.395 52.9999C351.418 52.9999 363.324 55.3683 374.432 59.9692C385.54 64.5702 395.633 71.3138 404.134 79.8152Z" fill="url(#paint0_linear_33_2)"/>
<path d="M675.279 350.494C683.785 358.993 690.533 369.085 695.137 380.193C699.741 391.301 702.111 403.207 702.111 415.232C702.111 427.256 699.741 439.163 695.137 450.271C690.533 461.379 683.785 471.47 675.279 479.969L404.975 750.185C396.473 758.686 386.381 765.43 375.273 770.031C364.165 774.632 352.259 777 340.236 777C328.213 777 316.308 774.632 305.2 770.031C294.092 765.43 283.999 758.686 275.497 750.185C266.995 741.683 260.251 731.591 255.65 720.483C251.049 709.375 248.681 697.47 248.681 685.447C248.681 673.424 251.049 661.519 255.65 650.412C260.251 639.304 266.995 629.211 275.497 620.71L545.719 350.494C562.909 333.33 586.207 323.69 610.499 323.69C634.791 323.69 658.09 333.33 675.279 350.494Z" fill="url(#paint1_linear_33_2)"/>
<path d="M250.283 528.966L362.681 412.574L133.889 416.565L250.283 528.966Z" fill="url(#paint2_linear_33_2)"/>
<path d="M246.351 300.231L133.951 416.625L362.684 412.571L246.351 300.231Z" fill="url(#paint3_linear_33_2)"/>
<path d="M999.767 203.224C1022.65 203.224 1042.72 207.696 1059.98 216.64C1077.46 225.584 1090.87 238.376 1100.23 255.016C1109.8 271.448 1114.58 290.584 1114.58 312.424C1114.58 334.264 1109.8 353.4 1100.23 369.832C1090.87 386.056 1077.46 398.64 1059.98 407.584C1042.72 416.528 1022.65 421 999.767 421H923.639V203.224H999.767ZM998.207 383.872C1021.09 383.872 1038.77 377.632 1051.25 365.152C1063.73 352.672 1069.97 335.096 1069.97 312.424C1069.97 289.752 1063.73 272.072 1051.25 259.384C1038.77 246.488 1021.09 240.04 998.207 240.04H967.319V383.872H998.207ZM1307.96 330.832C1307.96 337.072 1307.54 342.688 1306.71 347.68H1180.35C1181.39 360.16 1185.76 369.936 1193.46 377.008C1201.15 384.08 1210.62 387.616 1221.85 387.616C1238.07 387.616 1249.62 380.648 1256.48 366.712H1303.59C1298.6 383.352 1289.03 397.08 1274.89 407.896C1260.74 418.504 1243.38 423.808 1222.78 423.808C1206.14 423.808 1191.17 420.168 1177.86 412.888C1164.75 405.4 1154.46 394.896 1146.97 381.376C1139.69 367.856 1136.05 352.256 1136.05 334.576C1136.05 316.688 1139.69 300.984 1146.97 287.464C1154.25 273.944 1164.44 263.544 1177.54 256.264C1190.65 248.984 1205.73 245.344 1222.78 245.344C1239.22 245.344 1253.88 248.88 1266.78 255.952C1279.88 263.024 1289.97 273.112 1297.04 286.216C1304.32 299.112 1307.96 313.984 1307.96 330.832ZM1262.72 318.352C1262.51 307.12 1258.46 298.176 1250.55 291.52C1242.65 284.656 1232.98 281.224 1221.54 281.224C1210.72 281.224 1201.57 284.552 1194.08 291.208C1186.8 297.656 1182.33 306.704 1180.66 318.352H1262.72ZM1405.99 423.808C1391.84 423.808 1379.15 421.312 1367.92 416.32C1356.69 411.12 1347.75 404.152 1341.09 395.416C1334.64 386.68 1331.11 377.008 1330.48 366.4H1374.47C1375.31 373.056 1378.53 378.568 1384.15 382.936C1389.97 387.304 1397.15 389.488 1405.67 389.488C1413.99 389.488 1420.44 387.824 1425.02 384.496C1429.8 381.168 1432.19 376.904 1432.19 371.704C1432.19 366.088 1429.28 361.928 1423.46 359.224C1417.84 356.312 1408.79 353.192 1396.31 349.864C1383.42 346.744 1372.81 343.52 1364.49 340.192C1356.38 336.864 1349.31 331.768 1343.27 324.904C1337.45 318.04 1334.54 308.784 1334.54 297.136C1334.54 287.568 1337.24 278.832 1342.65 270.928C1348.27 263.024 1356.17 256.784 1366.36 252.208C1376.76 247.632 1388.93 245.344 1402.87 245.344C1423.46 245.344 1439.89 250.544 1452.16 260.944C1464.43 271.136 1471.19 284.968 1472.44 302.44H1430.63C1430.01 295.576 1427.1 290.168 1421.9 286.216C1416.91 282.056 1410.15 279.976 1401.62 279.976C1393.71 279.976 1387.58 281.432 1383.21 284.344C1379.05 287.256 1376.97 291.312 1376.97 296.512C1376.97 302.336 1379.88 306.808 1385.71 309.928C1391.53 312.84 1400.58 315.856 1412.85 318.976C1425.33 322.096 1435.63 325.32 1443.74 328.648C1451.85 331.976 1458.82 337.176 1464.64 344.248C1470.67 351.112 1473.79 360.264 1474 371.704C1474 381.688 1471.19 390.632 1465.58 398.536C1460.17 406.44 1452.27 412.68 1441.87 417.256C1431.67 421.624 1419.71 423.808 1405.99 423.808ZM1532.01 227.56C1524.31 227.56 1517.87 225.168 1512.67 220.384C1507.67 215.392 1505.18 209.256 1505.18 201.976C1505.18 194.696 1507.67 188.664 1512.67 183.88C1517.87 178.888 1524.31 176.392 1532.01 176.392C1539.71 176.392 1546.05 178.888 1551.04 183.88C1556.24 188.664 1558.84 194.696 1558.84 201.976C1558.84 209.256 1556.24 215.392 1551.04 220.384C1546.05 225.168 1539.71 227.56 1532.01 227.56ZM1553.54 248.152V421H1509.86V248.152H1553.54ZM1664.4 245.344C1677.29 245.344 1688.63 247.944 1698.41 253.144C1708.18 258.136 1715.88 264.688 1721.49 272.8V248.152H1765.49V422.248C1765.49 438.264 1762.26 452.512 1755.81 464.992C1749.37 477.68 1739.69 487.664 1726.8 494.944C1713.9 502.432 1698.3 506.176 1680 506.176C1655.45 506.176 1635.28 500.456 1619.47 489.016C1603.87 477.576 1595.03 461.976 1592.95 442.216H1636.32C1638.61 450.12 1643.49 456.36 1650.98 460.936C1658.68 465.72 1667.93 468.112 1678.75 468.112C1691.44 468.112 1701.73 464.264 1709.64 456.568C1717.54 449.08 1721.49 437.64 1721.49 422.248V395.416C1715.88 403.528 1708.08 410.288 1698.09 415.696C1688.32 421.104 1677.09 423.808 1664.4 423.808C1649.84 423.808 1636.53 420.064 1624.46 412.576C1612.4 405.088 1602.83 394.584 1595.76 381.064C1588.89 367.336 1585.46 351.632 1585.46 333.952C1585.46 316.48 1588.89 300.984 1595.76 287.464C1602.83 273.944 1612.29 263.544 1624.15 256.264C1636.21 248.984 1649.63 245.344 1664.4 245.344ZM1721.49 334.576C1721.49 323.968 1719.41 314.92 1715.25 307.432C1711.09 299.736 1705.48 293.912 1698.41 289.96C1691.33 285.8 1683.74 283.72 1675.63 283.72C1667.52 283.72 1660.03 285.696 1653.17 289.648C1646.3 293.6 1640.69 299.424 1636.32 307.12C1632.16 314.608 1630.08 323.552 1630.08 333.952C1630.08 344.352 1632.16 353.504 1636.32 361.408C1640.69 369.104 1646.3 375.032 1653.17 379.192C1660.24 383.352 1667.73 385.432 1675.63 385.432C1683.74 385.432 1691.33 383.456 1698.41 379.504C1705.48 375.344 1711.09 369.52 1715.25 362.032C1719.41 354.336 1721.49 345.184 1721.49 334.576ZM1903.93 245.656C1924.52 245.656 1941.16 252.208 1953.85 265.312C1966.54 278.208 1972.88 296.304 1972.88 319.6V421H1929.2V325.528C1929.2 311.8 1925.77 301.296 1918.91 294.016C1912.04 286.528 1902.68 282.784 1890.83 282.784C1878.76 282.784 1869.2 286.528 1862.12 294.016C1855.26 301.296 1851.83 311.8 1851.83 325.528V421H1808.15V248.152H1851.83V269.68C1857.65 262.192 1865.04 256.368 1873.98 252.208C1883.13 247.84 1893.12 245.656 1903.93 245.656ZM2175.1 330.832C2175.1 337.072 2174.68 342.688 2173.85 347.68H2047.49C2048.53 360.16 2052.9 369.936 2060.6 377.008C2068.29 384.08 2077.76 387.616 2088.99 387.616C2105.21 387.616 2116.76 380.648 2123.62 366.712H2170.73C2165.74 383.352 2156.17 397.08 2142.03 407.896C2127.88 418.504 2110.52 423.808 2089.92 423.808C2073.28 423.808 2058.31 420.168 2045 412.888C2031.89 405.4 2021.6 394.896 2014.11 381.376C2006.83 367.856 2003.19 352.256 2003.19 334.576C2003.19 316.688 2006.83 300.984 2014.11 287.464C2021.39 273.944 2031.58 263.544 2044.68 256.264C2057.79 248.984 2072.87 245.344 2089.92 245.344C2106.36 245.344 2121.02 248.88 2133.92 255.952C2147.02 263.024 2157.11 273.112 2164.18 286.216C2171.46 299.112 2175.1 313.984 2175.1 330.832ZM2129.86 318.352C2129.65 307.12 2125.6 298.176 2117.69 291.52C2109.79 284.656 2100.12 281.224 2088.68 281.224C2077.86 281.224 2068.71 284.552 2061.22 291.208C2053.94 297.656 2049.47 306.704 2047.8 318.352H2129.86ZM2372.34 248.152L2265.33 502.744H2218.84L2256.28 416.632L2187.02 248.152H2236L2280.62 368.896L2325.86 248.152H2372.34ZM2576.54 203.224V421H2532.86V328.336H2439.57V421H2395.89V203.224H2439.57V292.768H2532.86V203.224H2576.54ZM2782.71 248.152V421H2738.71V399.16C2733.1 406.648 2725.71 412.576 2716.56 416.944C2707.62 421.104 2697.84 423.184 2687.23 423.184C2673.71 423.184 2661.75 420.376 2651.35 414.76C2640.95 408.936 2632.74 400.512 2626.71 389.488C2620.88 378.256 2617.97 364.944 2617.97 349.552V248.152H2661.65V343.312C2661.65 357.04 2665.08 367.648 2671.95 375.136C2678.81 382.416 2688.17 386.056 2700.03 386.056C2712.09 386.056 2721.55 382.416 2728.42 375.136C2735.28 367.648 2738.71 357.04 2738.71 343.312V248.152H2782.71ZM2869.48 273.424C2875.1 265.104 2882.8 258.344 2892.57 253.144C2902.56 247.944 2913.89 245.344 2926.58 245.344C2941.35 245.344 2954.66 248.984 2966.52 256.264C2978.58 263.544 2988.04 273.944 2994.91 287.464C3001.98 300.776 3005.52 316.272 3005.52 333.952C3005.52 351.632 3001.98 367.336 2994.91 381.064C2988.04 394.584 2978.58 405.088 2966.52 412.576C2954.66 420.064 2941.35 423.808 2926.58 423.808C2913.68 423.808 2902.35 421.312 2892.57 416.32C2883 411.12 2875.31 404.464 2869.48 396.352V421H2825.8V190.12H2869.48V273.424ZM2960.9 333.952C2960.9 323.552 2958.72 314.608 2954.35 307.12C2950.19 299.424 2944.57 293.6 2937.5 289.648C2930.64 285.696 2923.15 283.72 2915.04 283.72C2907.13 283.72 2899.64 285.8 2892.57 289.96C2885.71 293.912 2880.09 299.736 2875.72 307.432C2871.56 315.128 2869.48 324.176 2869.48 334.576C2869.48 344.976 2871.56 354.024 2875.72 361.72C2880.09 369.416 2885.71 375.344 2892.57 379.504C2899.64 383.456 2907.13 385.432 2915.04 385.432C2923.15 385.432 2930.64 383.352 2937.5 379.192C2944.57 375.032 2950.19 369.104 2954.35 361.408C2958.72 353.712 2960.9 344.56 2960.9 333.952Z" fill="black"/>
<path d="M1509.65 609.13V616.67H1484.43V700H1475.33V616.67H1449.98V609.13H1509.65ZM1557.82 627.72C1563.19 627.72 1568 628.847 1572.25 631.1C1576.58 633.353 1579.96 636.82 1582.39 641.5C1584.9 646.093 1586.16 651.727 1586.16 658.4V700H1577.19V659.44C1577.19 651.727 1575.24 645.833 1571.34 641.76C1567.53 637.687 1562.28 635.65 1555.61 635.65C1548.76 635.65 1543.3 637.817 1539.23 642.15C1535.16 646.483 1533.12 652.853 1533.12 661.26V700H1524.02V603.8H1533.12V641.11C1535.37 636.863 1538.67 633.57 1543 631.23C1547.42 628.89 1552.36 627.72 1557.82 627.72ZM1670.51 660.87C1670.51 663.99 1670.42 666.373 1670.25 668.02H1611.36C1611.62 673.393 1612.92 677.987 1615.26 681.8C1617.6 685.613 1620.67 688.517 1624.49 690.51C1628.3 692.417 1632.46 693.37 1636.97 693.37C1642.86 693.37 1647.8 691.94 1651.79 689.08C1655.86 686.22 1658.55 682.363 1659.85 677.51H1669.47C1667.73 684.443 1664.01 690.12 1658.29 694.54C1652.65 698.873 1645.55 701.04 1636.97 701.04C1630.29 701.04 1624.31 699.567 1619.03 696.62C1613.74 693.587 1609.58 689.34 1606.55 683.88C1603.6 678.333 1602.13 671.877 1602.13 664.51C1602.13 657.143 1603.6 650.687 1606.55 645.14C1609.49 639.593 1613.61 635.347 1618.9 632.4C1624.18 629.453 1630.21 627.98 1636.97 627.98C1643.73 627.98 1649.62 629.453 1654.65 632.4C1659.76 635.347 1663.66 639.333 1666.35 644.36C1669.12 649.3 1670.51 654.803 1670.51 660.87ZM1661.28 660.61C1661.36 655.323 1660.28 650.817 1658.03 647.09C1655.86 643.363 1652.87 640.547 1649.06 638.64C1645.24 636.733 1641.08 635.78 1636.58 635.78C1629.82 635.78 1624.05 637.947 1619.29 642.28C1614.52 646.613 1611.88 652.723 1611.36 660.61H1661.28ZM1791.34 700H1782.24L1731.93 623.56V700H1722.83V609.13H1731.93L1782.24 685.44V609.13H1791.34V700ZM1876.17 660.87C1876.17 663.99 1876.08 666.373 1875.91 668.02H1817.02C1817.28 673.393 1818.58 677.987 1820.92 681.8C1823.26 685.613 1826.34 688.517 1830.15 690.51C1833.96 692.417 1838.12 693.37 1842.63 693.37C1848.52 693.37 1853.46 691.94 1857.45 689.08C1861.52 686.22 1864.21 682.363 1865.51 677.51H1875.13C1873.4 684.443 1869.67 690.12 1863.95 694.54C1858.32 698.873 1851.21 701.04 1842.63 701.04C1835.96 701.04 1829.98 699.567 1824.69 696.62C1819.4 693.587 1815.24 689.34 1812.21 683.88C1809.26 678.333 1807.79 671.877 1807.79 664.51C1807.79 657.143 1809.26 650.687 1812.21 645.14C1815.16 639.593 1819.27 635.347 1824.56 632.4C1829.85 629.453 1835.87 627.98 1842.63 627.98C1849.39 627.98 1855.28 629.453 1860.31 632.4C1865.42 635.347 1869.32 639.333 1872.01 644.36C1874.78 649.3 1876.17 654.803 1876.17 660.87ZM1866.94 660.61C1867.03 655.323 1865.94 650.817 1863.69 647.09C1861.52 643.363 1858.53 640.547 1854.72 638.64C1850.91 636.733 1846.75 635.78 1842.24 635.78C1835.48 635.78 1829.72 637.947 1824.95 642.28C1820.18 646.613 1817.54 652.723 1817.02 660.61H1866.94ZM1930 700L1911.67 671.4L1893.99 700H1884.37L1907.25 664.51L1884.63 629.02H1894.9L1912.97 657.23L1930.52 629.02H1940.01L1917.39 664.12L1940.27 700H1930ZM1964.44 636.69V680.76C1964.44 685.093 1965.27 688.083 1966.91 689.73C1968.56 691.377 1971.46 692.2 1975.62 692.2H1983.94V700H1974.19C1967.78 700 1963.01 698.527 1959.89 695.58C1956.77 692.547 1955.21 687.607 1955.21 680.76V636.69H1945.33V629.02H1955.21V611.21H1964.44V629.02H1983.94V636.69H1964.44ZM2047.78 688.04H2078.33V700H2032.96V609.65H2047.78V688.04ZM2156.37 662.43C2156.37 665.117 2156.2 667.543 2155.85 669.71H2101.12C2101.56 675.43 2103.68 680.023 2107.49 683.49C2111.31 686.957 2115.99 688.69 2121.53 688.69C2129.51 688.69 2135.14 685.353 2138.43 678.68H2154.42C2152.26 685.267 2148.31 690.683 2142.59 694.93C2136.96 699.09 2129.94 701.17 2121.53 701.17C2114.69 701.17 2108.53 699.653 2103.07 696.62C2097.7 693.5 2093.45 689.167 2090.33 683.62C2087.3 677.987 2085.78 671.487 2085.78 664.12C2085.78 656.753 2087.26 650.297 2090.2 644.75C2093.24 639.117 2097.44 634.783 2102.81 631.75C2108.27 628.717 2114.51 627.2 2121.53 627.2C2128.29 627.2 2134.32 628.673 2139.6 631.62C2144.89 634.567 2149.01 638.727 2151.95 644.1C2154.9 649.387 2156.37 655.497 2156.37 662.43ZM2140.9 657.75C2140.82 652.29 2138.87 647.913 2135.05 644.62C2131.24 641.327 2126.52 639.68 2120.88 639.68C2115.77 639.68 2111.39 641.327 2107.75 644.62C2104.11 647.827 2101.95 652.203 2101.25 657.75H2140.9ZM2198.65 686.74L2218.93 628.37H2234.66L2207.36 700H2189.68L2162.51 628.37H2178.37L2198.65 686.74ZM2311.51 662.43C2311.51 665.117 2311.34 667.543 2310.99 669.71H2256.26C2256.69 675.43 2258.82 680.023 2262.63 683.49C2266.44 686.957 2271.12 688.69 2276.67 688.69C2284.64 688.69 2290.28 685.353 2293.57 678.68H2309.56C2307.39 685.267 2303.45 690.683 2297.73 694.93C2292.1 699.09 2285.08 701.17 2276.67 701.17C2269.82 701.17 2263.67 699.653 2258.21 696.62C2252.84 693.5 2248.59 689.167 2245.47 683.62C2242.44 677.987 2240.92 671.487 2240.92 664.12C2240.92 656.753 2242.39 650.297 2245.34 644.75C2248.37 639.117 2252.58 634.783 2257.95 631.75C2263.41 628.717 2269.65 627.2 2276.67 627.2C2283.43 627.2 2289.45 628.673 2294.74 631.62C2300.03 634.567 2304.14 638.727 2307.09 644.1C2310.04 649.387 2311.51 655.497 2311.51 662.43ZM2296.04 657.75C2295.95 652.29 2294 647.913 2290.19 644.62C2286.38 641.327 2281.65 639.68 2276.02 639.68C2270.91 639.68 2266.53 641.327 2262.89 644.62C2259.25 647.827 2257.08 652.203 2256.39 657.75H2296.04ZM2340.92 603.8V700H2326.1V603.8H2340.92ZM2425.21 701.17C2418.45 701.17 2412.34 699.653 2406.88 696.62C2401.42 693.5 2397.13 689.167 2394.01 683.62C2390.89 677.987 2389.33 671.487 2389.33 664.12C2389.33 656.84 2390.94 650.383 2394.14 644.75C2397.35 639.117 2401.73 634.783 2407.27 631.75C2412.82 628.717 2419.02 627.2 2425.86 627.2C2432.71 627.2 2438.91 628.717 2444.45 631.75C2450 634.783 2454.38 639.117 2457.58 644.75C2460.79 650.383 2462.39 656.84 2462.39 664.12C2462.39 671.4 2460.75 677.857 2457.45 683.49C2454.16 689.123 2449.65 693.5 2443.93 696.62C2438.3 699.653 2432.06 701.17 2425.21 701.17ZM2425.21 688.3C2429.03 688.3 2432.58 687.39 2435.87 685.57C2439.25 683.75 2441.98 681.02 2444.06 677.38C2446.14 673.74 2447.18 669.32 2447.18 664.12C2447.18 658.92 2446.19 654.543 2444.19 650.99C2442.2 647.35 2439.56 644.62 2436.26 642.8C2432.97 640.98 2429.42 640.07 2425.6 640.07C2421.79 640.07 2418.24 640.98 2414.94 642.8C2411.74 644.62 2409.18 647.35 2407.27 650.99C2405.37 654.543 2404.41 658.92 2404.41 664.12C2404.41 671.833 2406.36 677.813 2410.26 682.06C2414.25 686.22 2419.23 688.3 2425.21 688.3ZM2507.07 640.46H2493.81V700H2478.86V640.46H2470.41V628.37H2478.86V623.3C2478.86 615.067 2481.03 609.087 2485.36 605.36C2489.78 601.547 2496.67 599.64 2506.03 599.64V611.99C2501.53 611.99 2498.36 612.857 2496.54 614.59C2494.72 616.237 2493.81 619.14 2493.81 623.3V628.37H2507.07V640.46ZM2568.8 609.65V700H2553.98V609.65H2568.8ZM2674.96 627.2C2680.6 627.2 2685.62 628.37 2690.04 630.71C2694.55 633.05 2698.06 636.517 2700.57 641.11C2703.17 645.703 2704.47 651.25 2704.47 657.75V700H2689.78V659.96C2689.78 653.547 2688.18 648.65 2684.97 645.27C2681.77 641.803 2677.39 640.07 2671.84 640.07C2666.3 640.07 2661.88 641.803 2658.58 645.27C2655.38 648.65 2653.77 653.547 2653.77 659.96V700H2639.08V659.96C2639.08 653.547 2637.48 648.65 2634.27 645.27C2631.07 641.803 2626.69 640.07 2621.14 640.07C2615.6 640.07 2611.18 641.803 2607.88 645.27C2604.68 648.65 2603.07 653.547 2603.07 659.96V700H2588.25V628.37H2603.07V636.56C2605.5 633.613 2608.58 631.317 2612.3 629.67C2616.03 628.023 2620.02 627.2 2624.26 627.2C2629.98 627.2 2635.1 628.413 2639.6 630.84C2644.11 633.267 2647.58 636.777 2650 641.37C2652.17 637.037 2655.55 633.613 2660.14 631.1C2664.74 628.5 2669.68 627.2 2674.96 627.2ZM2738.15 638.9C2740.67 635.607 2744.09 632.833 2748.42 630.58C2752.76 628.327 2757.65 627.2 2763.11 627.2C2769.35 627.2 2775.03 628.76 2780.14 631.88C2785.34 634.913 2789.42 639.203 2792.36 644.75C2795.31 650.297 2796.78 656.667 2796.78 663.86C2796.78 671.053 2795.31 677.51 2792.36 683.23C2789.42 688.863 2785.34 693.283 2780.14 696.49C2775.03 699.61 2769.35 701.17 2763.11 701.17C2757.65 701.17 2752.8 700.087 2748.55 697.92C2744.31 695.667 2740.84 692.893 2738.15 689.6V734.06H2723.33V628.37H2738.15V638.9ZM2781.7 663.86C2781.7 658.92 2780.66 654.673 2778.58 651.12C2776.59 647.48 2773.9 644.75 2770.52 642.93C2767.23 641.023 2763.68 640.07 2759.86 640.07C2756.14 640.07 2752.58 641.023 2749.2 642.93C2745.91 644.837 2743.22 647.61 2741.14 651.25C2739.15 654.89 2738.15 659.18 2738.15 664.12C2738.15 669.06 2739.15 673.393 2741.14 677.12C2743.22 680.76 2745.91 683.533 2749.2 685.44C2752.58 687.347 2756.14 688.3 2759.86 688.3C2763.68 688.3 2767.23 687.347 2770.52 685.44C2773.9 683.447 2776.59 680.587 2778.58 676.86C2780.66 673.133 2781.7 668.8 2781.7 663.86ZM2806.5 663.86C2806.5 656.667 2807.97 650.297 2810.92 644.75C2813.95 639.203 2818.02 634.913 2823.14 631.88C2828.34 628.76 2834.06 627.2 2840.3 627.2C2845.93 627.2 2850.83 628.327 2854.99 630.58C2859.23 632.747 2862.61 635.477 2865.13 638.77V628.37H2880.08V700H2865.13V689.34C2862.61 692.72 2859.19 695.537 2854.86 697.79C2850.52 700.043 2845.58 701.17 2840.04 701.17C2833.88 701.17 2828.25 699.61 2823.14 696.49C2818.02 693.283 2813.95 688.863 2810.92 683.23C2807.97 677.51 2806.5 671.053 2806.5 663.86ZM2865.13 664.12C2865.13 659.18 2864.09 654.89 2862.01 651.25C2860.01 647.61 2857.37 644.837 2854.08 642.93C2850.78 641.023 2847.23 640.07 2843.42 640.07C2839.6 640.07 2836.05 641.023 2832.76 642.93C2829.46 644.75 2826.78 647.48 2824.7 651.12C2822.7 654.673 2821.71 658.92 2821.71 663.86C2821.71 668.8 2822.7 673.133 2824.7 676.86C2826.78 680.587 2829.46 683.447 2832.76 685.44C2836.14 687.347 2839.69 688.3 2843.42 688.3C2847.23 688.3 2850.78 687.347 2854.08 685.44C2857.37 683.533 2860.01 680.76 2862.01 677.12C2864.09 673.393 2865.13 669.06 2865.13 664.12ZM2894.6 664.12C2894.6 656.753 2896.08 650.297 2899.02 644.75C2902.06 639.117 2906.22 634.783 2911.5 631.75C2916.79 628.717 2922.86 627.2 2929.7 627.2C2938.37 627.2 2945.52 629.28 2951.15 633.44C2956.87 637.513 2960.73 643.363 2962.72 650.99H2946.73C2945.43 647.437 2943.35 644.663 2940.49 642.67C2937.63 640.677 2934.04 639.68 2929.7 639.68C2923.64 639.68 2918.78 641.847 2915.14 646.18C2911.59 650.427 2909.81 656.407 2909.81 664.12C2909.81 671.833 2911.59 677.857 2915.14 682.19C2918.78 686.523 2923.64 688.69 2929.7 688.69C2938.28 688.69 2943.96 684.92 2946.73 677.38H2962.72C2960.64 684.66 2956.74 690.467 2951.02 694.8C2945.3 699.047 2938.2 701.17 2929.7 701.17C2922.86 701.17 2916.79 699.653 2911.5 696.62C2906.22 693.5 2902.06 689.167 2899.02 683.62C2896.08 677.987 2894.6 671.487 2894.6 664.12ZM2994.78 640.46V680.11C2994.78 682.797 2995.39 684.747 2996.6 685.96C2997.9 687.087 3000.07 687.65 3003.1 687.65H3012.2V700H3000.5C2993.83 700 2988.72 698.44 2985.16 695.32C2981.61 692.2 2979.83 687.13 2979.83 680.11V640.46H2971.38V628.37H2979.83V610.56H2994.78V628.37H3012.2V640.46H2994.78Z" fill="black"/>
<defs>
<linearGradient id="paint0_linear_33_2" x1="701.271" y1="279.71" x2="247.84" y2="279.71" gradientUnits="userSpaceOnUse">
<stop stop-color="#00FEFE"/>
<stop offset="1" stop-color="#0075DF"/>
</linearGradient>
<linearGradient id="paint1_linear_33_2" x1="702.111" y1="550.345" x2="248.681" y2="550.345" gradientUnits="userSpaceOnUse">
<stop stop-color="#00FEFE"/>
<stop offset="1" stop-color="#0075DF"/>
</linearGradient>
<linearGradient id="paint2_linear_33_2" x1="190.088" y1="358.369" x2="306.482" y2="470.77" gradientUnits="userSpaceOnUse">
<stop stop-color="#0075DF"/>
<stop offset="1" stop-color="#00FEFE"/>
</linearGradient>
<linearGradient id="paint3_linear_33_2" x1="192.117" y1="472.795" x2="304.517" y2="356.401" gradientUnits="userSpaceOnUse">
<stop stop-color="#0075DF"/>
<stop offset="1" stop-color="#00FEFE"/>
</linearGradient>
</defs>
</svg>
